<svg width="1200" height="800" viewBox="0 0 1200 800" fill="none" xmlns="http://www.w3.org/2000/svg">
  <defs>
    <linearGradient id="bg" x1="120" y1="90" x2="1090" y2="700" gradientUnits="userSpaceOnUse">
      <stop stop-color="#1D4ED8"/>
      <stop offset="1" stop-color="#0F172A"/>
    </linearGradient>
    <linearGradient id="card" x1="190" y1="220" x2="980" y2="640" gradientUnits="userSpaceOnUse">
      <stop stop-color="#FFFFFF" stop-opacity="0.98"/>
      <stop offset="1" stop-color="#F8FBFF" stop-opacity="0.9"/>
    </linearGradient>
    <linearGradient id="chip" x1="260" y1="496" x2="570" y2="582" gradientUnits="userSpaceOnUse">
      <stop stop-color="#2563EB"/>
      <stop offset="1" stop-color="#60A5FA"/>
    </linearGradient>
  </defs>

  <rect width="1200" height="800" rx="44" fill="url(#bg)"/>
  <circle cx="1015" cy="150" r="76" fill="#60A5FA" fill-opacity="0.27"/>
  <circle cx="1098" cy="238" r="36" fill="#BFDBFE" fill-opacity="0.22"/>
  <circle cx="174" cy="665" r="70" fill="#93C5FD" fill-opacity="0.19"/>

  <rect x="148" y="130" width="904" height="540" rx="30" fill="url(#card)" />
  <rect x="186" y="178" width="480" height="26" rx="13" fill="#DBEAFE"/>
  <rect x="186" y="221" width="600" height="18" rx="9" fill="#E2E8F0"/>
  <rect x="186" y="251" width="557" height="18" rx="9" fill="#E2E8F0"/>

  <rect x="186" y="306" width="306" height="146" rx="20" fill="#F1F5F9"/>
  <rect x="212" y="334" width="140" height="14" rx="7" fill="#CBD5E1"/>
  <rect x="212" y="361" width="248" height="12" rx="6" fill="#D1D9E6"/>
  <rect x="212" y="384" width="210" height="12" rx="6" fill="#D1D9E6"/>
  <rect x="212" y="407" width="236" height="12" rx="6" fill="#D1D9E6"/>

  <rect x="521" y="306" width="492" height="146" rx="20" fill="#EEF6FF"/>
  <rect x="548" y="334" width="178" height="14" rx="7" fill="#93C5FD"/>
  <rect x="548" y="361" width="435" height="12" rx="6" fill="#BFD6F8"/>
  <rect x="548" y="384" width="389" height="12" rx="6" fill="#BFD6F8"/>
  <rect x="548" y="407" width="412" height="12" rx="6" fill="#BFD6F8"/>

  <rect x="239" y="485" width="339" height="103" rx="24" fill="url(#chip)"/>
  <circle cx="287" cy="538" r="20" fill="#EFF6FF"/>
  <path d="M287 550L275.3 538.6C272.3 535.8 272.1 531 274.9 528.1C277.6 525.2 282.1 525.2 284.8 528.1L287 530.4L289.2 528.1C291.9 525.2 296.4 525.2 299.1 528.1C301.9 531 301.7 535.8 298.7 538.6L287 550Z" fill="#3B82F6"/>
  <rect x="322" y="523" width="224" height="12" rx="6" fill="#DBEAFE"/>
  <rect x="322" y="545" width="183" height="10" rx="5" fill="#BFDBFE"/>

  <rect x="619" y="485" width="395" height="103" rx="24" fill="#F8FAFC"/>
  <rect x="651" y="522" width="94" height="12" rx="6" fill="#CBD5E1"/>
  <rect x="651" y="545" width="332" height="10" rx="5" fill="#D5DEE8"/>

  <rect x="865" y="96" width="188" height="73" rx="18" fill="#DBEAFE"/>
  <rect x="898" y="121" width="122" height="11" rx="5.5" fill="#3B82F6"/>
  <rect x="898" y="141" width="84" height="9" rx="4.5" fill="#60A5FA"/>
</svg>
